<svg xmlns="http://www.w3.org/2000/svg" width="163" height="40" viewBox="0 0 1434.6664 344.70721">
  <g transform="matrix(1.3333333,0,0,-1.3333333,-562.66651,892.35375)">
    <path d="m 945.976,411.601 h 7.417 v 36.525 h -7.417 z" style="fill: #FFFFFF; fill-opacity: 1; fill-rule: nonzero; stroke: none;" />
    <g transform="translate(994.333,425.8604)">
      <path d="m 0,0 -14.625,22.266 h -5.442 V -14.26 h 4.288 V 9.764 l 14.19,-21.632 13.276,24.17 V -14.26 h 6.887 v 36.526 h -6.292 z" style="fill: #FFFFFF; fill-opacity: 1; fill-rule: nonzero; stroke: none;" />
    </g>
    <g>
      <g clip-path="url(#clipPath128)">
        <g transform="translate(1062.0796,425.501)">
          <path
            d="m 0,0 c -0.396,-2.156 -1.171,-4.073 -2.295,-5.687 -1.657,-2.288 -3.821,-3.677 -6.428,-4.126 -3.241,-0.55 -6.053,0.3 -8.617,2.59 -2.576,2.301 -4.257,5.548 -4.996,9.647 -0.401,2.349 -0.419,4.634 -0.049,6.788 0.368,2.127 1.111,3.991 2.202,5.535 1.616,2.254 3.702,3.573 6.372,4.028 0.57,0.091 1.167,0.137 1.776,0.137 2.933,0 5.44,-1.073 7.663,-3.282 2.221,-2.205 3.676,-5.166 4.325,-8.809 C 0.385,4.474 0.401,2.18 0,0 m -2.017,20.779 h -0.002 c -2.859,1.703 -5.97,2.567 -9.246,2.567 -2.48,0 -4.889,-0.512 -7.158,-1.521 -2.258,-1.006 -4.249,-2.379 -5.92,-4.08 -1.665,-1.697 -3.01,-3.729 -4.003,-6.039 -0.989,-2.314 -1.492,-4.744 -1.492,-7.225 0,-3.338 0.845,-6.496 2.511,-9.383 1.668,-2.887 3.952,-5.214 6.792,-6.913 2.841,-1.704 5.961,-2.568 9.27,-2.568 3.276,0 6.387,0.864 9.248,2.567 2.854,1.7 5.155,4.027 6.837,6.913 1.685,2.889 2.538,6.047 2.538,9.384 0,3.339 -0.853,6.498 -2.538,9.386 -1.681,2.885 -3.981,5.21 -6.837,6.912"
            style="fill: #FFFFFF; fill-opacity: 1; fill-rule: nonzero; stroke: none;"
            id="path132"
          />
        </g>
        <g id="g134" transform="translate(1102.4883,419.8291)">
          <path d="M 0,0 -10.618,27.058 -10,28.297 h -9.252 l 0.455,-0.911 13.941,-35.615 H 1.491 L 15.69,28.297 h -4.669 z" style="fill: #FFFFFF; fill-opacity: 1; fill-rule: nonzero; stroke: none;" id="path136" />
        </g>
        <g id="g138" transform="translate(1158.5132,443.7871)">
          <path d="M 0,0 4.271,4.339 H -23.553 V -32.187 H 0.102 l 3.291,4.434 h -19.625 v 14.186 h 16.029 l 3.472,4.288 H -16.232 V 0 Z" style="fill: #FFFFFF; fill-opacity: 1; fill-rule: nonzero; stroke: none;" id="path140" />
        </g>
        <path d="m 1179.897,411.601 h 7.416 v 36.525 h -7.416 z" style="fill: #FFFFFF; fill-opacity: 1; fill-rule: nonzero; stroke: none;" id="path142" />
        <g id="g144" transform="translate(1234.5195,424.4619)">
          <path
            d="M 0,0 V 0.002 C -0.557,1.13 -1.253,2.109 -2.074,2.917 -2.877,3.7 -3.876,4.466 -5.046,5.189 c -1.17,0.723 -2.265,1.313 -3.253,1.748 -1.003,0.445 -2.11,0.879 -3.28,1.291 -0.52,0.193 -1.169,0.422 -1.937,0.676 -1.181,0.414 -2.043,0.728 -2.581,0.931 -0.535,0.206 -1.179,0.481 -1.936,0.829 -0.719,0.329 -1.247,0.632 -1.568,0.898 -0.33,0.272 -0.631,0.603 -0.926,1.012 -0.27,0.379 -0.462,0.807 -0.574,1.28 -0.105,0.419 -0.088,0.971 0.053,1.64 0.141,0.674 0.443,1.275 0.937,1.859 1.153,1.467 3.123,2.212 5.858,2.212 3.721,0 6.634,-1.685 8.884,-5.122 l 0.46,-0.798 5.148,1.946 -0.686,1.146 c -2.933,4.533 -7.61,6.83 -13.903,6.83 -1.748,0 -3.393,-0.219 -4.887,-0.651 -1.495,-0.431 -2.769,-1.001 -3.79,-1.695 -1.003,-0.687 -1.881,-1.48 -2.609,-2.357 -0.734,-0.886 -1.278,-1.806 -1.62,-2.731 -0.346,-0.932 -0.521,-1.848 -0.521,-2.723 0,-0.672 0.06,-1.327 0.18,-1.948 0.126,-0.64 0.332,-1.233 0.616,-1.764 0.264,-0.493 0.526,-0.953 0.788,-1.378 0.29,-0.471 0.688,-0.926 1.186,-1.351 0.453,-0.388 0.864,-0.738 1.234,-1.044 0.403,-0.332 0.913,-0.655 1.557,-0.987 0.588,-0.304 1.074,-0.558 1.455,-0.762 0.398,-0.219 0.942,-0.459 1.666,-0.737 0.667,-0.251 1.175,-0.45 1.524,-0.594 0.363,-0.148 0.909,-0.339 1.602,-0.559 l 1.409,-0.534 c 1.184,-0.416 2.055,-0.728 2.612,-0.934 0.554,-0.207 1.249,-0.492 2.088,-0.853 0.802,-0.35 1.396,-0.659 1.759,-0.921 0.385,-0.277 0.792,-0.61 1.221,-0.991 0.37,-0.331 0.619,-0.674 0.742,-1.018 0.135,-0.377 0.203,-0.808 0.203,-1.281 0,-1.48 -0.607,-2.69 -1.857,-3.695 -1.272,-1.026 -2.879,-1.545 -4.777,-1.545 -5.392,0 -8.448,1.963 -9.346,6.003 l -0.231,1.036 -5.533,-1.133 0.354,-1.055 c 0.709,-2.907 2.305,-5.179 4.745,-6.754 2.399,-1.551 5.474,-2.338 9.144,-2.338 1.38,0 2.738,0.1 4.039,0.295 1.324,0.199 2.619,0.55 3.847,1.049 1.241,0.503 2.337,1.132 3.261,1.871 0.952,0.762 1.721,1.734 2.289,2.884 0.57,1.158 0.858,2.476 0.858,3.912 C 0.858,-2.41 0.57,-1.158 0,0"
            style="fill: #FFFFFF; fill-opacity: 1; fill-rule: nonzero; stroke: none;"
            id="path146"
          />
        </g>
        <g id="g148" transform="translate(1059.8481,459.0967)"><path d="m 0,0 -5.671,2.107 -7.686,-7.143 5.67,-2.108 z" style="fill: #FFFFFF; fill-opacity: 1; fill-rule: nonzero; stroke: none;" id="path150" /></g>
        <g id="g152" transform="translate(631.5049,535.9639)">
          <path
            d="m 0,0 c -0.028,1.955 -1.002,3.9 -2.769,5.041 l -98.467,63.614 c -1.934,1.245 -4.5,1.332 -6.56,0.007 l -89.602,-57.616 v 49.22 l 46.686,30.02 24.732,15.903 c 7.129,4.564 14.232,9.168 21.376,13.707 2.987,-1.996 5.993,-3.962 9.113,-5.752 l 12.739,-7.298 25.478,-14.595 25.586,-14.429 25.7,-14.252 -23.567,17.556 -23.681,17.379 -23.788,17.212 -11.895,8.605 c -3.967,2.866 -8.143,5.408 -12.295,7.988 l -0.143,0.09 c -1.926,1.192 -4.446,1.24 -6.464,-0.085 -8.195,-5.377 -16.474,-10.624 -24.708,-15.942 l -24.732,-15.903 -49.465,-31.808 c -1.653,-1.08 -2.779,-2.969 -2.779,-5.092 V -0.044 c -0.002,-1.124 0.308,-2.258 0.962,-3.273 1.808,-2.813 5.554,-3.627 8.366,-1.819 l 95.648,61.504 92.446,-59.723 0.356,-49.158 -89.504,57.586 c -1.859,1.192 -4.31,1.327 -6.348,0.137 l -0.234,-0.137 c -8.471,-4.947 -16.276,-10.931 -24.261,-16.636 l -23.886,-17.219 -23.794,-17.362 -23.697,-17.514 25.767,14.293 25.671,14.445 25.578,14.587 c 7.381,4.252 14.869,8.333 21.967,13.022 L -8.867,-68.75 c 0.957,-0.617 2.096,-0.971 3.319,-0.962 3.343,0.024 6.034,2.755 6.009,6.098 z"
            style="fill: #bc8b32; fill-opacity: 1; fill-rule: nonzero; stroke: none;"
            id="path154"
          />
        </g>
        <g id="g156" transform="translate(775.9668,550.9863)">
          <path
            d="m 0,0 c -2.379,2.565 -4.946,4.943 -7.633,7.071 -2.743,2.161 -5.965,4.204 -9.577,6.073 -3.532,1.825 -6.812,3.374 -9.753,4.597 -2.866,1.194 -6.095,2.473 -9.451,3.741 l -0.162,0.071 c -1.932,0.722 -4.286,1.566 -7.083,2.543 -4.436,1.513 -7.812,2.708 -10.036,3.55 -2.122,0.803 -4.721,1.942 -7.727,3.387 -2.845,1.366 -4.965,2.634 -6.303,3.768 -1.334,1.126 -2.62,2.576 -3.826,4.311 -1.147,1.644 -1.976,3.474 -2.458,5.413 -0.49,2.139 -0.398,4.735 0.27,7.714 0.659,2.946 2.042,5.697 4.141,8.216 4.948,6.316 13.08,9.518 24.173,9.518 6.937,0 13.432,-1.671 19.306,-4.968 5.934,-3.326 11.155,-8.186 15.516,-14.446 l 1.454,-2.087 13.329,5.123 -2.507,3.423 c -10.406,14.211 -26.375,21.418 -47.459,21.418 -7.386,0 -14.243,-1.121 -20.381,-3.332 -6.181,-2.229 -11.201,-5.113 -14.918,-8.569 -3.679,-3.417 -6.537,-7.139 -8.496,-11.056 -2.012,-4.026 -3.033,-7.954 -3.033,-11.676 0,-3.336 0.511,-6.525 1.519,-9.475 0.973,-2.859 2.137,-5.38 3.457,-7.488 1.394,-2.236 3.464,-4.422 6.143,-6.492 2.441,-1.899 4.639,-3.468 6.531,-4.666 1.919,-1.216 4.615,-2.616 8.014,-4.158 3.373,-1.536 6.095,-2.662 8.089,-3.343 1.897,-0.654 4.631,-1.632 8.16,-2.928 l 5.243,-1.986 c 3.931,-1.431 6.849,-2.503 8.758,-3.22 1.89,-0.708 4.348,-1.691 7.515,-3.005 3.027,-1.26 5.239,-2.304 6.571,-3.104 1.376,-0.825 3.072,-1.975 5.038,-3.42 1.688,-1.243 2.933,-2.44 3.601,-3.464 0.749,-1.147 1.419,-2.544 1.991,-4.151 0.531,-1.499 0.8,-3.157 0.8,-4.926 0,-4.203 -1.193,-8.043 -3.544,-11.419 -2.414,-3.463 -5.763,-6.243 -9.954,-8.256 -4.258,-2.05 -9.125,-3.089 -14.466,-3.089 -6.122,0 -11.583,0.682 -16.229,2.025 -4.498,1.3 -8.141,3.109 -10.826,5.373 -2.794,2.353 -5.027,4.801 -6.638,7.277 -1.596,2.444 -2.78,5.137 -3.521,8.004 l -0.757,2.934 -14.264,-2.656 1.063,-3.472 c 2.859,-9.366 8.564,-16.652 16.953,-21.659 8.19,-4.888 18.616,-7.365 30.991,-7.365 6.177,0 12.106,0.597 17.625,1.777 5.561,1.185 10.835,3.028 15.679,5.48 5.082,2.576 9.208,6.203 12.264,10.783 3.099,4.651 4.668,10.114 4.668,16.235 0,3.738 -0.678,7.365 -2.017,10.783 C 4.506,-5.861 2.542,-2.743 0,0"
            style="fill: #FFFFFF; fill-opacity: 1; fill-rule: nonzero; stroke: none;"
            id="path158"
          />
        </g>
        <g id="g160" transform="translate(995.1812,626.373)">
          <path d="m 0,0 h -21.196 v -129.713 h 79.872 l 0.967,1.109 c 0.829,0.949 1.718,1.958 2.669,3.025 l 4.822,5.405 H 0 Z" style="fill: #FFFFFF; fill-opacity: 1; fill-rule: nonzero; stroke: none;" id="path162" />
        </g>
        <g id="g164" transform="translate(1204.7559,627.5146)">
          <path
            d="m 0,0 0.29,-8.625 v -69.23 c 0,-12.155 -4.085,-22.096 -12.142,-29.547 -8.128,-7.523 -19.124,-11.336 -32.683,-11.336 -10.59,0 -19.439,3.836 -26.292,11.401 -6.941,7.656 -10.461,17.577 -10.461,29.487 L -81.474,0 h -21.191 l 0.18,-77.855 c 0,-9.337 2.714,-18.205 8.067,-26.356 5.293,-8.068 12.472,-14.612 21.333,-19.452 8.871,-4.845 18.477,-7.301 28.55,-7.301 14.921,0 27.845,5.228 38.41,15.541 10.586,10.335 15.954,22.977 15.954,37.573 L 9.642,0 Z"
            style="fill: #FFFFFF; fill-opacity: 1; fill-rule: nonzero; stroke: none;"
            id="path166"
          />
        </g>
        <g id="g168" transform="translate(1250.668,617.4404)"><path d="M 0,0 H 44.65 V -120.532 H 65.849 V 0 H 110.5 l 3.239,9.717 H -3.241 Z" style="fill: #FFFFFF; fill-opacity: 1; fill-rule: nonzero; stroke: none;" id="path170" /></g>
        <g id="g172" transform="translate(1425.9717,566.501)">
          <path d="M 0,0 H 61.477 L 69.04,9.716 H 0 v 41.043 h 62.312 l 9.716,9.718 h -93.047 v -129.89 h 83.415 l 7.811,10.255 H 0 Z" style="fill: #FFFFFF; fill-opacity: 1; fill-rule: nonzero; stroke: none;" id="path174" />
        </g>
        <g transform="translate(897.4448,533.6084)">
          <path
            d="m 0,0 h -57.583 l 29.095,72.895 z m -12.076,89.352 -0.825,2.105 h -18.338 l -51.952,-128.23 h 10.706 l 10.987,26.945 H 3.765 l 1.724,-3.906 8.972,-23.214 h 23.192 l -2.206,5.9 z"
            style="fill: #FFFFFF; fill-opacity: 1; fill-rule: nonzero; stroke: none;"
          />
        </g>
      </g>
    </g>
  </g>
</svg>