<svg width="212" height="212" xmlns="http://www.w3.org/2000/svg">
  <path stroke="null" fill="#bc8b32" d="m210.52192,138.10361c-0.028,-1.974 -1.002,-3.9379 -2.769,-5.08999l-98.467,-64.23219c-1.934,-1.2571 -4.5,-1.34494 -6.56,-0.00707l-89.602,58.1759l0,-49.69831l46.686,-30.31173l24.732,-16.05754c7.129,-4.60835 14.232,-9.25709 21.376,-13.8402c2.987,2.0154 5.993,4.0005 9.113,5.8079l12.739,7.36892l25.478,14.73683l25.586,14.56922l25.7,14.3905l-23.567,-17.72661l-23.681,-17.54789l-23.788,-17.37926l-11.895,-8.68862c-3.967,-2.89385 -8.143,-5.46055 -12.295,-8.06563l-0.143,-0.09087c-1.926,-1.20358 -4.446,-1.25205 -6.464,0.08583c-8.195,5.42925 -16.474,10.72724 -24.708,16.09692l-24.732,16.05754l-49.465,32.1171c-1.653,1.0905 -2.779,2.99785 -2.779,5.14148l0,64.23219c-0.002,1.13492 0.308,2.27994 0.962,3.30481c1.808,2.84034 5.554,3.66225 8.366,1.83668l95.648,-62.10168l92.446,60.30338l0.356,49.63571l-89.504,-58.14561c-1.859,-1.20358 -4.31,-1.3399 -6.348,-0.13833l-0.234,0.13833c-8.471,4.99507 -16.276,11.03723 -24.261,16.79767l-23.886,17.38633l-23.794,17.53072l-23.697,17.6842l25.767,-14.4319l25.671,-14.58537l25.578,-14.72875c7.381,-4.29332 14.869,-8.41398 21.967,-13.14855l95.601,62.03605c0.957,0.623 2.096,0.98044 3.319,0.97135c3.343,-0.02423 6.034,-2.78177 6.009,-6.15726l-0.461,-64.23219z"/>
</svg>